<?xml version="1.0" standalone="no"?><!DOCTYPE svg PUBLIC "-//W3C//DTD SVG 1.1//EN" "http://www.w3.org/Graphics/SVG/1.1/DTD/svg11.dtd"><svg t="1664109902500" class="icon" viewBox="0 0 1024 1024" version="1.1" xmlns="http://www.w3.org/2000/svg" p-id="2288" xmlns:xlink="http://www.w3.org/1999/xlink" width="200" height="200"><path d="M778.24 184.32h-94.208V159.744c0-12.288-10.24-22.528-24.576-22.528-12.288 0-24.576 10.24-24.576 22.528V184.32H401.408V159.744c0-12.288-10.24-22.528-24.576-22.528-12.288 0-24.576 10.24-24.576 22.528V184.32h-94.208C204.8 184.32 163.84 227.328 163.84 278.528v518.144c0 53.248 40.96 94.208 94.208 94.208H778.24c51.2 0 94.208-40.96 94.208-94.208V278.528c0-51.2-43.008-94.208-94.208-94.208z m47.104 612.352c0 26.624-20.48 47.104-47.104 47.104H260.096c-26.624 0-47.104-20.48-47.104-47.104v-409.6h612.352v-47.104H212.992v-59.392c0-26.624 20.48-47.104 47.104-47.104h94.208v24.576c0 12.288 10.24 24.576 22.528 24.576 12.288 0 24.576-10.24 24.576-24.576v-24.576h235.52v24.576c0 12.288 10.24 24.576 22.528 24.576 12.288 0 24.576-10.24 24.576-24.576v-24.576H778.24c26.624 0 47.104 20.48 47.104 47.104v516.096z" p-id="2289"></path><path d="M655.36 643.072h79.872v77.824H655.36v-77.824z m-176.128 0h79.872v77.824h-79.872v-77.824z m-176.128 0h79.872v77.824h-79.872v-77.824zM655.36 477.184h79.872v77.824H655.36v-77.824z m-176.128 0h79.872v77.824h-79.872v-77.824z m-176.128 0h79.872v77.824h-79.872v-77.824z m0 0" p-id="2290"></path></svg>