<?xml version="1.0" standalone="no"?><!DOCTYPE svg PUBLIC "-//W3C//DTD SVG 1.1//EN" "http://www.w3.org/Graphics/SVG/1.1/DTD/svg11.dtd"><svg t="1663849882362" class="icon" viewBox="0 0 1024 1024" version="1.1" xmlns="http://www.w3.org/2000/svg" p-id="1042" xmlns:xlink="http://www.w3.org/1999/xlink" width="200" height="200"><path d="M554.666667 913.066667c-25.6 0-51.2-8.533333-72.533334-25.6l-384-384c-8.533333-12.8-12.8-21.333333-12.8-34.133334V298.666667c0-119.466667 93.866667-213.333333 213.333334-213.333334h170.666666c12.8 0 21.333333 4.266667 29.866667 12.8l384 384c38.4 42.666667 38.4 102.4 0 145.066667l-256 256c-21.333333 21.333333-46.933333 29.866667-72.533333 29.866667zM170.666667 452.266667l371.2 371.2c8.533333 4.266667 17.066667 4.266667 25.6 0l256-256c4.266667-4.266667 4.266667-17.066667 0-25.6L452.266667 170.666667H298.666667C226.133333 170.666667 170.666667 226.133333 170.666667 298.666667v153.6z" p-id="1043"></path><path d="M384 512c-72.533333 0-128-55.466667-128-128s55.466667-128 128-128 128 55.466667 128 128-55.466667 128-128 128z m0-170.666667c-25.6 0-42.666667 17.066667-42.666667 42.666667s17.066667 42.666667 42.666667 42.666667 42.666667-17.066667 42.666667-42.666667-17.066667-42.666667-42.666667-42.666667z" p-id="1044"></path></svg>